<mxfile host="Electron" agent="Mozilla/5.0 (Windows NT 10.0; Win64; x64) AppleWebKit/537.36 (KHTML, like Gecko) draw.io/24.7.5 Chrome/126.0.6478.183 Electron/31.3.0 Safari/537.36" version="24.7.5">
  <diagram name="Page-1" id="fc2IP_vQTd5E4Vd6jDIc">
    <mxGraphModel dx="677" dy="406" grid="1" gridSize="10" guides="1" tooltips="1" connect="1" arrows="1" fold="1" page="1" pageScale="1" pageWidth="850" pageHeight="1100" math="0" shadow="0">
      <root>
        <mxCell id="0" />
        <mxCell id="1" parent="0" />
        <mxCell id="XJ1QiKCv9-4vYzZIFbI5-5" value="" style="edgeStyle=orthogonalEdgeStyle;rounded=0;orthogonalLoop=1;jettySize=auto;html=1;" edge="1" parent="1" source="XJ1QiKCv9-4vYzZIFbI5-1" target="XJ1QiKCv9-4vYzZIFbI5-2">
          <mxGeometry relative="1" as="geometry" />
        </mxCell>
        <mxCell id="XJ1QiKCv9-4vYzZIFbI5-1" value="Start" style="ellipse;whiteSpace=wrap;html=1;" vertex="1" parent="1">
          <mxGeometry x="180" y="70" width="120" height="80" as="geometry" />
        </mxCell>
        <mxCell id="XJ1QiKCv9-4vYzZIFbI5-6" value="" style="edgeStyle=orthogonalEdgeStyle;rounded=0;orthogonalLoop=1;jettySize=auto;html=1;" edge="1" parent="1" source="XJ1QiKCv9-4vYzZIFbI5-2" target="XJ1QiKCv9-4vYzZIFbI5-3">
          <mxGeometry relative="1" as="geometry" />
        </mxCell>
        <mxCell id="XJ1QiKCv9-4vYzZIFbI5-2" value="Display Rules&lt;span class=&quot;hljs-operator&quot;&gt;/&lt;/span&gt; Instructions&amp;nbsp;" style="rounded=0;whiteSpace=wrap;html=1;" vertex="1" parent="1">
          <mxGeometry x="180" y="200" width="120" height="70" as="geometry" />
        </mxCell>
        <mxCell id="XJ1QiKCv9-4vYzZIFbI5-8" value="" style="edgeStyle=orthogonalEdgeStyle;rounded=0;orthogonalLoop=1;jettySize=auto;html=1;" edge="1" parent="1" source="XJ1QiKCv9-4vYzZIFbI5-3" target="XJ1QiKCv9-4vYzZIFbI5-7">
          <mxGeometry relative="1" as="geometry" />
        </mxCell>
        <mxCell id="XJ1QiKCv9-4vYzZIFbI5-3" value="&lt;span class=&quot;hljs-keyword&quot;&gt;Select&lt;/span&gt; Category" style="rhombus;whiteSpace=wrap;html=1;" vertex="1" parent="1">
          <mxGeometry x="190" y="320" width="100" height="100" as="geometry" />
        </mxCell>
        <mxCell id="XJ1QiKCv9-4vYzZIFbI5-10" value="" style="edgeStyle=orthogonalEdgeStyle;rounded=0;orthogonalLoop=1;jettySize=auto;html=1;" edge="1" parent="1" source="XJ1QiKCv9-4vYzZIFbI5-7" target="XJ1QiKCv9-4vYzZIFbI5-9">
          <mxGeometry relative="1" as="geometry" />
        </mxCell>
        <mxCell id="XJ1QiKCv9-4vYzZIFbI5-7" value="Ask Question" style="whiteSpace=wrap;html=1;" vertex="1" parent="1">
          <mxGeometry x="180" y="480" width="120" height="60" as="geometry" />
        </mxCell>
        <mxCell id="XJ1QiKCv9-4vYzZIFbI5-12" value="" style="edgeStyle=orthogonalEdgeStyle;rounded=0;orthogonalLoop=1;jettySize=auto;html=1;" edge="1" parent="1" source="XJ1QiKCv9-4vYzZIFbI5-9" target="XJ1QiKCv9-4vYzZIFbI5-11">
          <mxGeometry relative="1" as="geometry" />
        </mxCell>
        <mxCell id="XJ1QiKCv9-4vYzZIFbI5-9" value="Receive Answer&amp;nbsp;" style="whiteSpace=wrap;html=1;" vertex="1" parent="1">
          <mxGeometry x="180" y="600" width="120" height="60" as="geometry" />
        </mxCell>
        <mxCell id="XJ1QiKCv9-4vYzZIFbI5-20" value="" style="edgeStyle=orthogonalEdgeStyle;rounded=0;orthogonalLoop=1;jettySize=auto;html=1;" edge="1" parent="1" source="XJ1QiKCv9-4vYzZIFbI5-11" target="XJ1QiKCv9-4vYzZIFbI5-19">
          <mxGeometry relative="1" as="geometry">
            <Array as="points">
              <mxPoint x="300" y="765" />
              <mxPoint x="300" y="885" />
              <mxPoint x="330" y="885" />
            </Array>
          </mxGeometry>
        </mxCell>
        <mxCell id="XJ1QiKCv9-4vYzZIFbI5-27" value="No" style="edgeLabel;html=1;align=center;verticalAlign=middle;resizable=0;points=[];" vertex="1" connectable="0" parent="XJ1QiKCv9-4vYzZIFbI5-20">
          <mxGeometry x="-0.0213" y="-2" relative="1" as="geometry">
            <mxPoint as="offset" />
          </mxGeometry>
        </mxCell>
        <mxCell id="XJ1QiKCv9-4vYzZIFbI5-55" value="" style="edgeStyle=orthogonalEdgeStyle;rounded=0;orthogonalLoop=1;jettySize=auto;html=1;" edge="1" parent="1" source="XJ1QiKCv9-4vYzZIFbI5-11">
          <mxGeometry relative="1" as="geometry">
            <mxPoint x="170.03999999999996" y="890" as="targetPoint" />
          </mxGeometry>
        </mxCell>
        <mxCell id="XJ1QiKCv9-4vYzZIFbI5-56" value="yes" style="edgeLabel;html=1;align=center;verticalAlign=middle;resizable=0;points=[];" vertex="1" connectable="0" parent="XJ1QiKCv9-4vYzZIFbI5-55">
          <mxGeometry x="0.3223" y="-2" relative="1" as="geometry">
            <mxPoint as="offset" />
          </mxGeometry>
        </mxCell>
        <mxCell id="XJ1QiKCv9-4vYzZIFbI5-11" value="&lt;span class=&quot;hljs-keyword&quot;&gt;Is&lt;/span&gt; the Answer&amp;nbsp; &amp;nbsp;&amp;nbsp;Correct?&amp;nbsp;" style="rhombus;whiteSpace=wrap;html=1;" vertex="1" parent="1">
          <mxGeometry x="190" y="720" width="100" height="90" as="geometry" />
        </mxCell>
        <mxCell id="XJ1QiKCv9-4vYzZIFbI5-40" value="" style="edgeStyle=orthogonalEdgeStyle;rounded=0;orthogonalLoop=1;jettySize=auto;html=1;exitX=0.608;exitY=0.96;exitDx=0;exitDy=0;exitPerimeter=0;entryX=0.995;entryY=0.34;entryDx=0;entryDy=0;entryPerimeter=0;" edge="1" parent="1" source="XJ1QiKCv9-4vYzZIFbI5-13" target="XJ1QiKCv9-4vYzZIFbI5-28">
          <mxGeometry relative="1" as="geometry">
            <mxPoint x="239.99999999999997" y="1220" as="sourcePoint" />
            <mxPoint x="310" y="1310" as="targetPoint" />
            <Array as="points">
              <mxPoint x="170" y="1087" />
              <mxPoint x="170" y="1150" />
              <mxPoint x="240" y="1150" />
              <mxPoint x="240" y="1260" />
            </Array>
          </mxGeometry>
        </mxCell>
        <mxCell id="XJ1QiKCv9-4vYzZIFbI5-58" value="No" style="edgeLabel;html=1;align=center;verticalAlign=middle;resizable=0;points=[];" vertex="1" connectable="0" parent="XJ1QiKCv9-4vYzZIFbI5-40">
          <mxGeometry x="0.3273" y="-3" relative="1" as="geometry">
            <mxPoint as="offset" />
          </mxGeometry>
        </mxCell>
        <mxCell id="XJ1QiKCv9-4vYzZIFbI5-42" value="" style="edgeStyle=orthogonalEdgeStyle;rounded=0;orthogonalLoop=1;jettySize=auto;html=1;" edge="1" parent="1" source="XJ1QiKCv9-4vYzZIFbI5-13" target="XJ1QiKCv9-4vYzZIFbI5-28">
          <mxGeometry relative="1" as="geometry">
            <Array as="points">
              <mxPoint x="150" y="1150" />
              <mxPoint x="50" y="1150" />
              <mxPoint x="50" y="1250" />
            </Array>
          </mxGeometry>
        </mxCell>
        <mxCell id="XJ1QiKCv9-4vYzZIFbI5-57" value="Yes" style="edgeLabel;html=1;align=center;verticalAlign=middle;resizable=0;points=[];" vertex="1" connectable="0" parent="XJ1QiKCv9-4vYzZIFbI5-42">
          <mxGeometry x="0.5036" y="-4" relative="1" as="geometry">
            <mxPoint as="offset" />
          </mxGeometry>
        </mxCell>
        <mxCell id="XJ1QiKCv9-4vYzZIFbI5-13" value="Next Question?" style="rhombus;whiteSpace=wrap;html=1;" vertex="1" parent="1">
          <mxGeometry x="120" y="1010" width="80" height="80" as="geometry" />
        </mxCell>
        <mxCell id="XJ1QiKCv9-4vYzZIFbI5-47" value="" style="edgeStyle=orthogonalEdgeStyle;rounded=0;orthogonalLoop=1;jettySize=auto;html=1;" edge="1" parent="1" source="XJ1QiKCv9-4vYzZIFbI5-15" target="XJ1QiKCv9-4vYzZIFbI5-46">
          <mxGeometry relative="1" as="geometry" />
        </mxCell>
        <mxCell id="XJ1QiKCv9-4vYzZIFbI5-15" value="Display Final Score" style="ellipse;whiteSpace=wrap;html=1;" vertex="1" parent="1">
          <mxGeometry x="80" y="1360" width="100" height="60" as="geometry" />
        </mxCell>
        <mxCell id="XJ1QiKCv9-4vYzZIFbI5-19" value="Update Score: -50 Points" style="whiteSpace=wrap;html=1;" vertex="1" parent="1">
          <mxGeometry x="230" y="880" width="120" height="60" as="geometry" />
        </mxCell>
        <mxCell id="XJ1QiKCv9-4vYzZIFbI5-53" value="" style="edgeStyle=orthogonalEdgeStyle;rounded=0;orthogonalLoop=1;jettySize=auto;html=1;" edge="1" parent="1" source="XJ1QiKCv9-4vYzZIFbI5-22" target="XJ1QiKCv9-4vYzZIFbI5-13">
          <mxGeometry relative="1" as="geometry" />
        </mxCell>
        <mxCell id="XJ1QiKCv9-4vYzZIFbI5-22" value="Update Score: +100 Points" style="rounded=0;whiteSpace=wrap;html=1;" vertex="1" parent="1">
          <mxGeometry x="100" y="890" width="120" height="60" as="geometry" />
        </mxCell>
        <mxCell id="XJ1QiKCv9-4vYzZIFbI5-45" value="" style="edgeStyle=orthogonalEdgeStyle;rounded=0;orthogonalLoop=1;jettySize=auto;html=1;" edge="1" parent="1" source="XJ1QiKCv9-4vYzZIFbI5-28" target="XJ1QiKCv9-4vYzZIFbI5-15">
          <mxGeometry relative="1" as="geometry" />
        </mxCell>
        <mxCell id="XJ1QiKCv9-4vYzZIFbI5-28" value="Select Category" style="whiteSpace=wrap;html=1;" vertex="1" parent="1">
          <mxGeometry x="70" y="1240" width="120" height="60" as="geometry" />
        </mxCell>
        <mxCell id="XJ1QiKCv9-4vYzZIFbI5-46" value="End" style="ellipse;whiteSpace=wrap;html=1;" vertex="1" parent="1">
          <mxGeometry x="80" y="1450" width="100" height="60" as="geometry" />
        </mxCell>
      </root>
    </mxGraphModel>
  </diagram>
</mxfile>
